HIERARCHY
ROOT root
{
	OFFSET 0.000000 0.000000 0.000000
	CHANNELS 6 Xposition Yposition Zposition Zrotation Yrotation Xrotation
	JOINT lhip
	{
		OFFSET 0.058581 -0.082280 -0.017664
		CHANNELS 3 Zrotation Yrotation Xrotation
		JOINT lknee
		{
			OFFSET 0.043451 -0.386469 0.008037
			CHANNELS 3 Zrotation Yrotation Xrotation
			JOINT lankle
			{
				OFFSET -0.014790 -0.426874 -0.037428
				CHANNELS 3 Zrotation Yrotation Xrotation
				JOINT ltoe
				{
					OFFSET 0.041054 -0.060286 0.122042
					CHANNELS 3 Zrotation Yrotation Xrotation
					End Site
					{
						OFFSET 0.000000 0.000000 0.000000
					}
				}
			}
		}
	}
	JOINT rhip
	{
		OFFSET -0.060310 -0.090513 -0.013543
		CHANNELS 3 Zrotation Yrotation Xrotation
		JOINT rknee
		{
			OFFSET -0.043257 -0.383688 -0.004843
			CHANNELS 3 Zrotation Yrotation Xrotation
			JOINT rankle
			{
				OFFSET 0.019056 -0.420046 -0.034562
				CHANNELS 3 Zrotation Yrotation Xrotation
				JOINT rtoe
				{
					OFFSET -0.034840 -0.062106 0.130323
					CHANNELS 3 Zrotation Yrotation Xrotation
					End Site
					{
						OFFSET 0.000000 0.000000 0.000000
					}
				}
			}
		}
	}
	JOINT lowerback
	{
		OFFSET 0.004439 0.124404 -0.038385
		CHANNELS 3 Zrotation Yrotation Xrotation
		JOINT upperback
		{
			OFFSET 0.004488 0.137956 0.026820
			CHANNELS 3 Zrotation Yrotation Xrotation
			JOINT chest
			{
				OFFSET -0.002265 0.056032 0.002855
				CHANNELS 3 Zrotation Yrotation Xrotation
				JOINT lowerneck
				{
					OFFSET -0.013390 0.211636 -0.033468
					CHANNELS 3 Zrotation Yrotation Xrotation
					JOINT upperneck
					{
						OFFSET 0.010113 0.088937 0.050410
						CHANNELS 3 Zrotation Yrotation Xrotation
						End Site
						{
							OFFSET 0.000000 0.000000 0.000000
						}
					}
				}
				JOINT lclavicle
				{
					OFFSET 0.071702 0.114000 -0.018898
					CHANNELS 3 Zrotation Yrotation Xrotation
					JOINT lshoulder
					{
						OFFSET 0.122921 0.045205 -0.019046
						CHANNELS 3 Zrotation Yrotation Xrotation
						JOINT lelbow
						{
							OFFSET 0.255332 -0.015649 -0.022946
							CHANNELS 3 Zrotation Yrotation Xrotation
							JOINT lwrist
							{
								OFFSET 0.265709 0.012698 -0.007375
								CHANNELS 3 Zrotation Yrotation Xrotation
								End Site
								{
									OFFSET 0.000000 0.000000 0.000000
								}
							}
						}
					}
				}
				JOINT rclavicle
				{
					OFFSET -0.082954 0.112472 -0.023707
					CHANNELS 3 Zrotation Yrotation Xrotation
					JOINT rshoulder
					{
						OFFSET -0.113228 0.046853 -0.008472
						CHANNELS 3 Zrotation Yrotation Xrotation
						JOINT relbow
						{
							OFFSET -0.260127 -0.014369 -0.031269
							CHANNELS 3 Zrotation Yrotation Xrotation
							JOINT rwrist
							{
								OFFSET -0.269108 0.006794 -0.006027
								CHANNELS 3 Zrotation Yrotation Xrotation
								End Site
								{
									OFFSET 0.000000 0.000000 0.000000
								}
							}
						}
					}
				}
			}
		}
	}
}
MOTION
Frames: 8
Frame Time: 0.033333
0.721210 0.861530 0.982866 -0.641255 -0.381158 87.763875 5.745663 3.130041 1.354819 -5.357747 -6.026876 9.483115 -1.275612 11.531161 -15.368931 0.000000 -0.000000 0.000000 -9.476883 -3.935160 -1.517020 1.236571 5.735512 17.946361 7.018625 -8.975794 -20.169777 0.000000 -0.000000 0.000000 0.743076 1.327653 3.169065 1.343741 -2.989593 1.639183 -0.706418 -0.147974 2.164690 0.959716 16.908125 -1.418013 -4.159169 7.163164 6.151799 -12.405745 -0.104519 -0.818882 -31.455812 -5.712072 10.203939 -13.694596 -7.329262 38.182464 -13.836143 -13.304570 20.386183 14.471549 -0.869209 1.543061 32.456163 10.668953 7.194351 3.675768 3.252927 17.283715 8.720501 6.242227 12.061852 
0.721214 0.861165 0.982948 -0.671699 -0.364553 87.616604 5.714162 2.995820 1.560415 -5.335564 -6.405929 9.444220 -1.629914 11.933180 -15.405904 0.000000 -0.000000 0.000000 -9.436867 -4.253972 -1.280595 1.116846 6.043513 17.753758 6.862791 -8.949134 -19.985130 0.000000 -0.000000 0.000000 1.042275 1.295497 3.411552 1.058103 -2.960732 1.299823 -0.712050 -0.094125 2.474437 0.905037 17.020138 -1.426573 -4.037294 7.517006 5.948798 -12.222506 -0.266858 -0.956514 -31.244673 -5.637134 9.755485 -13.708160 -7.845877 37.923736 -14.168801 -12.717844 20.942329 14.428738 -0.807933 1.464721 32.221527 10.715579 6.832629 4.146400 3.802790 17.804233 9.618089 5.625138 13.267228 
0.721207 0.860677 0.982979 -0.807927 -0.361082 87.681529 5.694256 2.819318 1.538817 -5.332857 -6.078838 9.416539 -1.635514 11.966676 -15.417891 0.000000 -0.000000 0.000000 -9.400390 -4.192129 -1.321380 1.024399 5.949366 17.699484 6.815069 -8.914195 -19.898862 0.000000 -0.000000 0.000000 1.238273 1.335225 3.197717 0.976253 -2.811502 1.438877 -0.795367 -0.042777 2.479345 0.590124 16.730149 -1.429524 -4.023204 7.648328 5.829526 -12.313402 0.238921 -0.865344 -31.305878 -5.727298 8.841486 -12.921907 -9.919938 34.898882 -14.246160 -12.775055 18.094299 14.431372 -1.189013 1.403224 32.866738 10.638779 6.732581 3.270614 5.018117 16.457515 11.041862 4.842835 11.550863 
0.721014 0.859788 0.982936 -0.804221 -0.336351 87.654982 5.747000 2.646533 1.600834 -5.262685 -5.648938 9.231280 -1.733723 11.638292 -15.403042 0.000000 -0.000000 0.000000 -9.394219 -4.198713 -1.235989 0.989222 5.524434 17.533426 6.497778 -8.616806 -19.828467 0.000000 -0.000000 0.000000 1.243520 1.068275 3.015485 0.934362 -2.565300 1.551180 -0.768213 0.036538 2.728575 0.524107 16.352759 -1.912539 -4.147452 8.094464 5.975538 -13.319036 2.091337 -0.827566 -31.671485 -6.321891 6.649830 -10.275594 -14.674629 25.937136 -13.142212 -14.088745 8.767393 15.504599 -2.318849 1.231090 33.477814 11.391895 5.634900 1.203093 6.115195 8.946952 10.316082 5.632781 5.741161 
0.720987 0.859568 0.982728 -0.863188 -0.347070 87.789216 5.686666 2.479610 1.480654 -5.137187 -5.405857 9.101710 -1.806315 11.395092 -15.328663 0.000000 -0.000000 0.000000 -9.350097 -4.200067 -1.455785 0.798417 5.319787 17.516537 6.354173 -8.230286 -19.857091 0.000000 -0.000000 0.000000 1.145666 0.907930 3.144114 0.916002 -2.266674 1.244204 -0.748002 0.170088 2.969002 0.658574 15.944464 -2.674152 -4.032007 8.163048 6.117457 -14.260825 3.912109 -1.302543 -32.482470 -7.023550 5.429941 -7.915389 -18.454908 19.238914 -10.309653 -14.385330 1.380113 16.797076 -3.597965 0.614152 33.974302 11.877160 4.745639 -0.590062 7.440774 2.323100 9.499687 5.095589 -0.053733 
0.720369 0.858884 0.982342 -0.838581 -0.258996 88.057547 5.734401 2.284366 1.165986 -4.981728 -5.226409 9.060110 -1.787809 11.166308 -15.423400 0.000000 -0.000000 0.000000 -9.203349 -4.250432 -1.742826 0.647697 4.729774 17.460399 6.200248 -7.869259 -19.897574 0.000000 -0.000000 0.000000 1.130762 0.855835 3.293075 0.835130 -1.608073 0.757188 -0.667045 0.164779 3.133653 0.471172 14.858564 -3.642439 -3.577701 8.074192 6.344806 -15.907551 5.930996 -1.728239 -34.241147 -8.214190 4.226102 -3.955002 -23.331763 9.570860 -5.834665 -14.436826 -8.614605 18.172959 -4.906956 -0.114059 35.646487 11.494687 5.040385 -2.249289 9.894023 -5.838018 6.703850 5.907173 -7.883266 
0.720693 0.859027 0.982292 -0.967525 -0.212895 88.609301 5.591889 1.571881 0.492573 -4.804249 -4.555583 9.162410 -1.684034 11.151820 -15.733137 0.000000 -0.000000 0.000000 -9.162436 -3.874442 -2.068251 0.450493 4.216004 16.878734 6.205174 -7.455342 -19.616844 0.000000 -0.000000 0.000000 1.109060 0.722621 3.093987 0.795795 -1.254647 0.423101 -0.649364 0.213490 3.567680 0.538149 14.289041 -5.082421 -3.388846 8.149641 6.856251 -17.530524 8.120391 -2.420215 -37.678071 -9.546915 3.922462 0.950048 -27.628905 0.983409 0.817538 -13.683301 -18.182193 19.752425 -6.517788 -0.743851 38.173867 12.507026 5.594714 -4.823348 12.467037 -12.438609 3.126234 5.905186 -14.458418 
0.720736 0.858594 0.982296 -0.753354 -0.304337 88.851519 5.513285 1.217825 0.051979 -4.881953 -4.077993 9.440228 -1.597825 10.780471 -15.770077 0.000000 -0.000000 0.000000 -9.219123 -4.051137 -2.241546 0.159915 3.787460 16.867805 6.096420 -7.016969 -19.634187 0.000000 -0.000000 0.000000 0.960725 0.512963 3.090147 0.635452 -1.143472 0.326325 -0.750252 0.251914 3.808899 0.717560 13.725060 -6.392796 -2.895740 8.066095 7.073981 -18.514762 9.346903 -2.660349 -41.546835 -10.485234 4.182959 5.138024 -31.220488 -5.581835 7.583252 -11.795785 -25.366658 20.645745 -7.410978 -0.896944 42.417328 12.841312 7.012027 -7.547100 15.549008 -17.186064 -1.775232 5.236711 -19.301475 
